<svg width="112" height="24" viewBox="0 0 112 24" fill="none" xmlns="http://www.w3.org/2000/svg"><path fill-rule="evenodd" clip-rule="evenodd" d="M59.878 16.865c-1.217 1.23-2.673 1.848-4.36 1.848-1.366 0-2.525-.277-3.709-.962v-2.819c.952.643 2.149 1.255 3.328 1.255 2.462 0 3.927-1.687 3.927-4.077 0-2.392-1.515-4.128-3.978-4.128-1.1 0-1.991.393-2.688 1.182-.746.855-1.132 2.077-1.132 3.692v11.131h-.185a2.45 2.45 0 0 1-2.457-2.445v-9.104c0-3.863 2.373-6.982 6.45-6.982 2.013 0 3.648.685 4.888 2.062 1.166 1.287 1.743 2.917 1.743 4.878 0 1.745-.61 3.238-1.827 4.469zm28.6-.095c-1.213 1.296-2.773 1.943-4.665 1.943-1.997 0-3.624-.686-4.862-2.063-1.165-1.302-1.743-2.933-1.743-4.877 0-3.442 2.667-6.317 6.178-6.317 1.354 0 2.53.284 3.718.933v2.848c-.953-.643-2.148-1.255-3.328-1.255-2.462 0-3.928 1.686-3.928 4.077 0 2.358 1.551 4.128 3.978 4.128 1.1 0 2.004-.41 2.728-1.236.72-.82 1.093-2.026 1.093-3.646v-8.86A2.45 2.45 0 0 1 90.103 0h.186v11.72c0 2.065-.6 3.754-1.812 5.05zm7.458-12.565c-.277.309-.674.451-1.159.451-.907 0-1.555-.666-1.555-1.561 0-.917.636-1.536 1.555-1.536.884 0 1.556.652 1.556 1.536 0 .436-.13.811-.397 1.11zm13.422 7.1c0-1.037-.394-1.857-1.186-2.48-.713-.559-1.603-.843-2.687-.843-2.39 0-3.925 1.86-3.925 4.154 0 2.209 1.627 4.051 3.9 4.051 1.582 0 2.427-.92 3.329-2.065v3.303c-.459.343-.988.716-1.527.935-.57.237-1.249.353-2.034.353-3.803 0-6.31-3.135-6.31-6.758 0-1.86.58-3.399 1.749-4.598 1.24-1.27 2.866-1.901 4.857-1.901 3.775 0 6.476 2.158 6.476 6.057v6.94h-.185a2.45 2.45 0 0 1-2.457-2.446v-4.702zm-36.16-.745c-.333-1.028-.752-1.533-1.714-2.068-2.29-1.274-4.542-.19-5.59 2.058l7.304.01zm-2.015 8.114c-1.687.357-3.343.082-4.958-.817-1.576-.876-2.63-2.179-3.16-3.9-1.069-3.482 1.122-7.361 4.645-8.3 1.746-.466 3.42-.255 5.01.63 2.643 1.47 3.606 3.744 3.438 6.675l-10.642-.021c.157 1.195.9 2.13 1.947 2.712 1.06.59 2.036.73 2.94.451 1.005-.314 1.82-1.13 2.483-1.89l2.169 1.573c-.885 1.576-2.089 2.509-3.872 2.887zM93.456 5.716h2.642v12.737h-.186a2.45 2.45 0 0 1-2.456-2.446V5.716zM3.866 18.453C1.282 18.453 0 16.703 0 14.26V4.991a2.45 2.45 0 0 1 2.456-2.445h.186v3.17h4.463v2.526H2.642v6.31c0 1.074.48 1.375 1.51 1.375h2.953v2.526h-3.24zm15.34-1.61c-1.305 1.245-2.873 1.87-4.695 1.87-1.806 0-3.365-.625-4.67-1.87-1.31-1.25-1.962-2.841-1.962-4.758 0-3.741 2.869-6.629 6.632-6.629 1.805 0 3.37.63 4.682 1.884 1.318 1.258 1.976 2.844 1.976 4.745 0 1.917-.654 3.508-1.963 4.758zm12.35-8.062c-.388.647-.688 1.11-.9 1.391a3.626 3.626 0 0 1-.69.717c1.835.59 2.519 1.856 2.519 3.742v3.822h-.186a2.45 2.45 0 0 1-2.456-2.446v-1.116c0-1.222-.55-2.05-1.85-2.05h-2.399v5.612h-.185a2.45 2.45 0 0 1-2.456-2.446V2.445A2.45 2.45 0 0 1 25.41 0h.185v10.29h.78c.859 0 1.422-.293 1.746-.846l2.219-3.727 3.01-.003-1.793 3.067zm13.635 8.062c-1.305 1.245-2.874 1.87-4.696 1.87-1.805 0-3.364-.625-4.67-1.87-1.309-1.25-1.962-2.841-1.962-4.758 0-3.741 2.87-6.629 6.632-6.629 1.806 0 3.37.63 4.683 1.884 1.318 1.258 1.975 2.844 1.975 4.745 0 1.917-.653 3.508-1.962 4.758zM43.284 9.12c-.728-.758-1.652-1.138-2.789-1.138-2.43 0-3.886 1.764-3.886 4.103 0 2.306 1.49 4.102 3.886 4.102 2.397 0 3.886-1.796 3.886-4.102 0-1.225-.37-2.207-1.097-2.965zm-25.985 0c-.727-.758-1.652-1.138-2.788-1.138-2.431 0-3.886 1.764-3.886 4.103 0 2.306 1.49 4.102 3.886 4.102s3.885-1.796 3.885-4.102c0-1.225-.369-2.207-1.097-2.965z" fill="#42B549"/></svg>